<svg width="18" height="9" viewBox="0 0 18 9" fill="none" xmlns="http://www.w3.org/2000/svg">
<path d="M17.8428 5.99064C17.9334 6.14803 17.958 6.33488 17.9113 6.51039C17.8647 6.68589 17.7504 6.83579 17.5936 6.92735C17.49 6.99013 17.371 7.02286 17.2498 7.02189C17.1281 7.02297 17.0083 6.99172 16.9026 6.93133C16.7969 6.87093 16.7091 6.78356 16.6483 6.67814L15.067 3.94532C14.1392 4.56944 13.1181 5.04225 12.042 5.3461L12.5404 8.17345C12.5706 8.35328 12.5289 8.53775 12.4245 8.6872C12.32 8.83665 12.1611 8.93915 11.9819 8.97267H11.8615C11.6997 8.97314 11.5429 8.91652 11.4187 8.81277C11.2946 8.70903 11.211 8.5648 11.1826 8.40548L10.6928 5.6211C10.1323 5.70467 9.56651 5.74775 8.99982 5.75001C8.4305 5.75027 7.86188 5.71007 7.29826 5.6297L6.80842 8.41407C6.7801 8.57339 6.69649 8.71762 6.57231 8.82137C6.44813 8.92511 6.29133 8.98173 6.12951 8.98126H6.0092C5.82997 8.94775 5.67104 8.84525 5.56659 8.6958C5.46213 8.54634 5.42049 8.36187 5.45061 8.18204L5.95764 5.3461C4.87811 5.04421 3.85393 4.57129 2.92404 3.94532L1.3342 6.69532C1.27278 6.79835 1.18609 6.88399 1.08232 6.94415C0.978557 7.0043 0.861154 7.03697 0.741231 7.03907C0.620755 7.03865 0.502506 7.00657 0.39833 6.94606C0.294154 6.88555 0.207708 6.79872 0.147654 6.69428C0.0876002 6.58983 0.0560459 6.47144 0.0561526 6.35097C0.0562593 6.23049 0.0880234 6.11216 0.148262 6.00782L1.82404 3.10314C1.23845 2.60092 0.700487 2.0457 0.217012 1.44454C0.159876 1.37488 0.117178 1.29454 0.0914066 1.2082C0.0656351 1.12187 0.0573059 1.03127 0.0669043 0.941684C0.0765027 0.852099 0.103837 0.76532 0.147314 0.686406C0.19079 0.607491 0.249539 0.53802 0.320137 0.482041C0.389267 0.424423 0.469161 0.381124 0.555176 0.354661C0.64119 0.328199 0.731607 0.319101 0.821169 0.327897C0.91073 0.336693 0.99765 0.363208 1.07687 0.405899C1.15609 0.44859 1.22604 0.506606 1.28264 0.576573C1.82058 1.24724 2.43488 1.85289 3.11311 2.38126H3.1217C4.79984 3.69032 6.87157 4.39301 8.99982 4.37501C11.5178 4.37501 13.4514 3.48985 14.8694 2.38985H14.8865C15.5648 1.86148 16.1791 1.25583 16.717 0.585167C16.773 0.514569 16.8425 0.455819 16.9214 0.412342C17.0003 0.368865 17.0871 0.341532 17.1767 0.331933C17.2662 0.322335 17.3568 0.330664 17.4432 0.356435C17.5295 0.382207 17.6098 0.424905 17.6795 0.482041C17.7501 0.53802 17.8089 0.607491 17.8523 0.686406C17.8958 0.76532 17.9231 0.852099 17.9327 0.941684C17.9423 1.03127 17.934 1.12187 17.9082 1.2082C17.8825 1.29454 17.8398 1.37488 17.7826 1.44454C17.2992 2.0457 16.7612 2.60092 16.1756 3.10314L17.8428 5.99064Z" fill="#A5A5A5"/>
</svg>
