<svg width="22" height="14" viewBox="0 0 22 14" fill="none" xmlns="http://www.w3.org/2000/svg">
<path d="M21.2523 6.725C21.2266 6.65625 20.4961 5.04063 18.8805 3.41641C16.7234 1.26797 13.9992 0.125 11 0.125C8.00077 0.125 5.27655 1.26797 3.11952 3.41641C1.50389 5.04063 0.773424 6.65625 0.747643 6.725C0.709275 6.8116 0.689453 6.90528 0.689453 7C0.689453 7.09472 0.709275 7.1884 0.747643 7.275C0.773424 7.34375 1.50389 8.95937 3.11952 10.5836C5.27655 12.732 8.00077 13.875 11 13.875C13.9992 13.875 16.7234 12.732 18.8805 10.5836C20.4961 8.95937 21.2266 7.34375 21.2523 7.275C21.2907 7.1884 21.3105 7.09472 21.3105 7C21.3105 6.90528 21.2907 6.8116 21.2523 6.725ZM11 12.5C8.35311 12.5 6.04139 11.5375 4.13358 9.63828C3.34513 8.86178 2.67614 7.97269 2.14842 7C2.67543 6.02428 3.34445 5.13225 4.13358 4.35312C6.04139 2.4625 8.35311 1.5 11 1.5C13.6469 1.5 15.9586 2.4625 17.8664 4.35312C18.6555 5.13225 19.3245 6.02428 19.8515 7C19.2328 8.16016 16.5344 12.5 11 12.5ZM11 2.875C10.1841 2.875 9.38661 3.11693 8.70826 3.57019C8.02991 4.02345 7.5012 4.66769 7.18898 5.42143C6.87677 6.17518 6.79508 7.00458 6.95425 7.80475C7.11341 8.60492 7.50628 9.33992 8.08317 9.91682C8.66006 10.4937 9.39507 10.8866 10.1952 11.0457C10.9954 11.2049 11.8248 11.1232 12.5786 10.811C13.3323 10.4988 13.9765 9.97008 14.4298 9.29173C14.8831 8.61337 15.125 7.81585 15.125 7C15.125 5.90598 14.6904 4.85677 13.9168 4.08318C13.1432 3.3096 12.094 2.875 11 2.875ZM11 9.75C10.4561 9.75 9.9244 9.58872 9.47217 9.28654C9.01993 8.98437 8.66746 8.55488 8.45932 8.05238C8.25118 7.54988 8.19672 6.99695 8.30283 6.4635C8.40894 5.93005 8.67085 5.44005 9.05544 5.05546C9.44004 4.67086 9.93004 4.40895 10.4635 4.30284C10.9969 4.19673 11.5499 4.25119 12.0524 4.45933C12.5549 4.66747 12.9844 5.01995 13.2865 5.47218C13.5887 5.92442 13.75 6.4561 13.75 7C13.7477 7.72865 13.4573 8.42681 12.942 8.94204C12.4268 9.45727 11.7286 9.74773 11 9.75Z" fill="#5F96E9"/>
</svg>
