<svg width="24" height="24" viewBox="0 0 24 24" fill="none" xmlns="http://www.w3.org/2000/svg">
<circle cx="12" cy="12" r="9.25" stroke="#27AE60" stroke-width="1.5"/>
<path d="M10.8823 16.8C10.789 16.8 10.7016 16.7842 10.6199 16.7527C10.5383 16.7216 10.4625 16.6685 10.3926 16.5933L7.38453 13.3611C7.25628 13.2233 7.19495 13.0446 7.20055 12.8252C7.20661 12.6062 7.27377 12.4278 7.40202 12.29C7.53027 12.1521 7.6935 12.0832 7.8917 12.0832C8.08991 12.0832 8.25314 12.1521 8.38139 12.29L10.8823 14.9772L16.811 8.60674C16.9392 8.46893 17.1055 8.40002 17.3097 8.40002C17.5135 8.40002 17.6796 8.46893 17.8078 8.60674C17.9361 8.74454 18.0002 8.92294 18.0002 9.14193C18.0002 9.36142 17.9361 9.54007 17.8078 9.67788L11.372 16.5933C11.302 16.6685 11.2262 16.7216 11.1446 16.7527C11.063 16.7842 10.9755 16.8 10.8823 16.8Z" fill="#27AE60"/>
</svg>
