<svg width="426" height="226" viewBox="0 0 426 226" fill="none" xmlns="http://www.w3.org/2000/svg">
<g clip-path="url(#clip0_69_2664)">
<path d="M329.246 216.574C326.195 220.537 322.596 223.476 323.389 224.817C323.389 224.817 325.012 226.037 329.49 226.037C337.176 226.037 344.741 225.451 343.496 224.671C341.776 223.586 336.798 223.195 332.04 221.549C330.82 221.147 334.614 218.867 333.589 218.501C332.078 218.011 330.623 217.365 329.246 216.574Z" fill="#002E4F"/>
<path d="M408.479 224.586C408.479 224.586 409.492 226 413.36 226C420.009 226 426.939 225.098 425.866 224.415C424.377 223.488 412.725 221.061 412.725 221.061L410.114 217.818L405.685 220.257L408.479 224.586Z" fill="#002E4F"/>
<path d="M387.469 126.633C384.542 126.644 381.624 126.296 378.782 125.596C377.622 125.241 376.646 124.45 376.06 123.389C375.474 122.328 375.323 121.081 375.64 119.911C375.957 118.741 376.716 117.74 377.758 117.119C378.8 116.499 380.042 116.307 381.222 116.585C381.381 116.585 391.886 119.316 398.011 114.061C402.11 110.549 403.672 103.916 402.647 94.3679L402.318 91.3194L411.762 85.9663C412.296 85.6328 412.893 85.4109 413.516 85.3139C414.139 85.217 414.775 85.2471 415.386 85.4023C415.998 85.5576 416.571 85.8348 417.072 86.2172C417.573 86.5997 417.991 87.0796 418.302 87.6279C418.612 88.1763 418.809 88.7818 418.879 89.4079C418.949 90.0341 418.892 90.668 418.711 91.2715C418.53 91.875 418.228 92.4356 417.824 92.9195C417.42 93.4035 416.923 93.8007 416.361 94.0874L412.189 96.453C412.847 107.708 410.114 116.024 404.038 121.194C398.889 125.56 392.496 126.633 387.469 126.633Z" fill="#FFA87C"/>
<path d="M403.574 100.733C403.404 107.525 401.598 112.439 398.169 115.366C391.447 121.133 379.929 118.195 379.734 118.146C379.084 117.97 378.406 117.923 377.738 118.009C377.07 118.095 376.426 118.311 375.842 118.646C374.663 119.321 373.8 120.438 373.444 121.749C373.088 123.06 373.268 124.459 373.944 125.638C374.62 126.817 375.737 127.679 377.049 128.035C380.053 129.34 383.304 129.98 386.578 129.913C406.442 129.206 418.435 112.085 418.655 102.099L403.574 100.733Z" fill="#E1F3F6"/>
<path d="M376.256 76.9917C374.475 76.1869 372.73 75.3211 371.01 74.4188C354.538 83.7836 333.504 95.7945 333.089 96.2091C333.089 96.2091 343.545 112.841 344.216 113.512C344.643 113.939 370.571 95.3556 389.214 81.8936C384.907 80.2231 380.478 78.8695 376.256 76.9917Z" fill="#8DBFFA"/>
<path d="M376.488 76.5039C380.808 78.4062 385.334 79.7841 389.714 81.5034C399.975 74.0896 407.918 68.3219 407.918 68.3219L390.373 63.4444L371.608 74.1018C373.194 74.9553 374.841 75.7601 376.488 76.5039Z" fill="#5F96E9"/>
<path d="M346.278 54.677L356.613 82.6252L376.805 90.0269L351.232 43.3246L346.278 54.677Z" fill="#00396A"/>
<path d="M377.916 96.9042H362.945L376.268 120.158L396.571 128.706L377.916 96.9042Z" fill="#00396A"/>
<path d="M396.559 128.706L384.651 108.391L333.687 138.253L323.67 121.182L329.966 19.6076L352.867 6.19445L394.082 76.4674L407.955 68.3463L419.485 88.0149L405.624 96.1359L417.533 116.451L396.559 128.706ZM350.329 49.8849L349.036 50.6409L345.534 104.891L373.121 88.7343L350.329 49.8849Z" fill="#73B3FF"/>
<path d="M306.735 116.524L323.67 121.17L333.699 138.253L315.788 133.729L306.735 116.524Z" fill="#8DBFFA"/>
<path d="M306.735 116.524L323.67 121.17L329.966 19.5954L314.422 15.8763L306.735 116.524Z" fill="#5F96E9"/>
<path d="M314.421 15.8763L329.966 19.5954L352.867 6.17007L337.128 1.59739L314.421 15.8763Z" fill="#8DBFFA"/>
<path d="M348.499 156.995C348.499 156.995 350.939 183.822 350.939 193.247C350.939 193.247 331.418 208.477 326.537 216.416C328.587 217.976 332.638 220.074 335.322 219.976C343.772 212.038 352.933 204.891 362.689 198.625C362.689 198.625 368.875 180.724 370.79 165.555L348.499 156.995Z" fill="#002E4F"/>
<path d="M362.445 158.263C366.841 158.415 371.204 157.459 375.134 155.483C373.914 150.118 376.574 134.303 380.014 125.852C380.014 125.852 382.699 119.975 380.82 118.158C373.865 111.476 367.948 112.061 366.105 111.951C359.712 117.341 347.804 133.23 348.304 154.252C351.537 157.666 358.187 158.239 362.445 158.263Z" fill="#E1F3F6"/>
<path d="M405.575 221.001C408.14 220.437 410.447 219.044 412.14 217.038C404.587 204.844 376.891 159.836 375.39 156.312C375.39 156.227 375.317 156.117 375.28 156.02C371.061 158.127 366.36 159.086 361.652 158.8C357.564 158.641 351.622 158.068 348.23 155.032C348.23 155.252 348.23 155.471 348.23 155.691C348.804 167.421 387.762 206.551 403.135 221.537C403.959 221.411 404.774 221.232 405.575 221.001Z" fill="#00396A"/>
<path d="M325.171 146.094C324.11 146.1 323.055 145.935 322.047 145.606C320.542 145.086 319.194 144.194 318.127 143.013C317.06 141.832 316.31 140.4 315.947 138.851C315.752 138.258 315.678 137.631 315.729 137.009C315.781 136.386 315.957 135.781 316.247 135.227C316.537 134.674 316.935 134.185 317.417 133.788C317.9 133.391 318.457 133.095 319.056 132.917C319.655 132.739 320.284 132.684 320.905 132.753C321.526 132.822 322.126 133.015 322.671 133.32C323.217 133.626 323.695 134.037 324.078 134.531C324.461 135.024 324.741 135.589 324.902 136.193C324.955 136.395 325.028 136.591 325.122 136.778C325.622 136.778 327.464 136.632 331.967 133.986C335.993 131.632 340.751 128.108 345.388 124.706C353.16 118.963 360.505 113.537 366.569 111.61C367.738 111.277 368.991 111.413 370.062 111.988C371.133 112.564 371.937 113.534 372.304 114.693C372.671 115.851 372.571 117.107 372.027 118.193C371.482 119.28 370.535 120.111 369.387 120.511C364.8 121.962 357.76 127.169 350.939 132.205C340.959 139.595 332.162 146.094 325.171 146.094Z" fill="#00A4E2"/>
<path d="M333.906 142.607C333.333 139.863 332.686 136.827 330.99 134.571C327.22 136.656 325.622 136.79 325.158 136.778C325.065 136.591 324.991 136.395 324.939 136.193C324.778 135.589 324.498 135.024 324.115 134.531C323.731 134.037 323.253 133.626 322.708 133.32C322.163 133.015 321.562 132.822 320.941 132.753C320.32 132.684 319.692 132.74 319.093 132.917C318.494 133.095 317.936 133.391 317.454 133.788C316.971 134.185 316.573 134.674 316.283 135.227C315.993 135.781 315.818 136.386 315.766 137.009C315.714 137.631 315.788 138.258 315.983 138.851C316.347 140.4 317.097 141.832 318.164 143.013C319.23 144.194 320.579 145.086 322.084 145.606C323.092 145.935 324.147 146.1 325.207 146.094C328.338 145.925 331.387 145.031 334.114 143.485C334.016 143.192 333.967 142.899 333.906 142.607Z" fill="#FFA87C"/>
<path d="M372.425 114.658C372.052 113.479 371.226 112.495 370.128 111.923C369.03 111.352 367.75 111.239 366.569 111.61C360.468 113.537 353.148 118.926 345.388 124.706C340.788 128.108 336.03 131.632 331.967 133.986L331.442 134.29C333.187 136.595 336.2 147.972 336.261 148.228C341.215 145.643 364.958 127.572 370.107 122.121C371.913 120.243 373.206 117.109 372.425 114.658Z" fill="#E1F3F6"/>
<path d="M318.558 142.326C318.273 142.324 317.997 142.234 317.765 142.07C314.104 139.448 312.189 134.412 312.115 134.205C311.988 133.865 312 133.489 312.15 133.159C312.3 132.828 312.575 132.571 312.915 132.443C313.254 132.315 313.631 132.328 313.962 132.477C314.292 132.627 314.55 132.902 314.678 133.242C314.678 133.242 316.386 137.717 319.363 139.839C319.658 140.051 319.857 140.372 319.916 140.731C319.975 141.089 319.891 141.457 319.68 141.753C319.554 141.932 319.385 142.078 319.19 142.178C318.994 142.278 318.777 142.329 318.558 142.326Z" fill="#FFA87C"/>
<path d="M318.57 138.985C318.349 138.986 318.131 138.934 317.936 138.832C317.74 138.73 317.572 138.581 317.447 138.4C315.69 135.961 314.287 130.023 314.128 129.364C314.047 129.009 314.11 128.636 314.301 128.325C314.493 128.015 314.799 127.793 315.153 127.706C315.33 127.664 315.512 127.658 315.691 127.688C315.87 127.718 316.041 127.783 316.194 127.88C316.347 127.976 316.48 128.102 316.584 128.25C316.688 128.398 316.762 128.565 316.8 128.742C317.191 130.401 318.46 135.083 319.68 136.815C319.785 136.961 319.86 137.128 319.9 137.304C319.941 137.48 319.946 137.662 319.915 137.84C319.884 138.019 319.819 138.189 319.722 138.341C319.625 138.494 319.499 138.626 319.35 138.729C319.124 138.895 318.85 138.984 318.57 138.985Z" fill="#FFA87C"/>
<path d="M320.461 138.156C320.196 138.15 319.939 138.066 319.721 137.914C319.504 137.762 319.337 137.549 319.241 137.302C318.021 134.217 317.484 127.755 317.459 127.547C317.435 127.192 317.548 126.841 317.775 126.566C318.002 126.292 318.326 126.115 318.679 126.072C319.036 126.041 319.391 126.152 319.667 126.38C319.943 126.608 320.119 126.935 320.156 127.291C320.346 130.336 320.873 133.35 321.73 136.278C321.867 136.616 321.864 136.994 321.722 137.33C321.58 137.666 321.311 137.933 320.973 138.07C320.811 138.135 320.636 138.164 320.461 138.156Z" fill="#FFA87C"/>
<path d="M322.523 137.546C322.219 137.548 321.923 137.448 321.682 137.262C321.441 137.077 321.269 136.816 321.193 136.522C320.693 134.24 320.693 131.877 321.193 129.596C321.28 129.242 321.503 128.937 321.814 128.748C322.125 128.558 322.498 128.499 322.852 128.584C323.028 128.624 323.194 128.698 323.34 128.803C323.486 128.908 323.61 129.041 323.704 129.194C323.799 129.348 323.862 129.518 323.889 129.696C323.917 129.874 323.908 130.055 323.865 130.23C323.471 132.075 323.471 133.982 323.865 135.827C323.911 136.001 323.922 136.183 323.897 136.362C323.872 136.541 323.811 136.713 323.719 136.868C323.628 137.023 323.506 137.159 323.361 137.267C323.217 137.375 323.052 137.453 322.877 137.497C322.762 137.531 322.643 137.547 322.523 137.546Z" fill="#FFA87C"/>
<path d="M377.708 122.121C377.058 122.116 376.417 121.971 375.829 121.694C375.308 121.448 374.84 121.102 374.453 120.675C374.065 120.248 373.766 119.749 373.572 119.207C373.379 118.664 373.294 118.089 373.323 117.513C373.352 116.938 373.495 116.374 373.743 115.853C374.646 114.113 375.738 112.477 377 110.976C377.753 110.085 378.828 109.529 379.991 109.431C381.153 109.332 382.307 109.7 383.198 110.452C384.09 111.203 384.646 112.278 384.744 113.44C384.843 114.602 384.475 115.755 383.723 116.646C382.941 117.568 382.258 118.569 381.686 119.633C381.323 120.38 380.758 121.009 380.055 121.449C379.351 121.889 378.538 122.122 377.708 122.121Z" fill="#FFA87C"/>
<path d="M378.367 119.865C378.881 120.44 379.427 120.985 380.002 121.499C380.744 121.049 381.338 120.392 381.71 119.609C382.283 118.545 382.966 117.543 383.748 116.622C384.5 115.731 384.867 114.577 384.769 113.416C384.671 112.254 384.115 111.179 383.223 110.427C382.332 109.675 381.178 109.308 380.015 109.406C378.853 109.505 377.777 110.06 377.025 110.951C376.94 111.061 376.586 111.488 376.11 112.11C376.159 114.866 376.488 117.743 378.367 119.865Z" fill="#FF9C6B"/>
<path d="M392.801 114.988C391.958 117.021 390.344 118.638 388.31 119.483C386.277 120.329 383.992 120.335 381.954 119.499C380.945 119.085 380.027 118.476 379.253 117.706C378.48 116.937 377.866 116.022 377.446 115.015C377.027 114.008 376.811 112.929 376.81 111.838C376.808 110.747 377.023 109.667 377.44 108.659L379.636 103.33C380.051 102.321 380.66 101.404 381.43 100.631C382.2 99.858 383.115 99.2443 384.123 98.8252C385.13 98.4061 386.211 98.1898 387.302 98.1887C388.393 98.1875 389.474 98.4016 390.483 98.8186C392.52 99.6581 394.139 101.272 394.986 103.305C395.833 105.337 395.837 107.623 394.997 109.659L392.801 114.988Z" fill="#FFA87C"/>
<path d="M378.367 108.062C377.684 110.915 373.584 110 372.047 108.513C369.924 106.452 368.655 100.648 373.365 100.965C369.973 95.8555 381.466 90.3073 382.662 96.2213C383.565 94.6971 384.48 93.3192 386.481 93.1973C387.921 93.0997 390.434 94.2215 390.227 95.9775C391.289 95.1834 392.586 94.7665 393.912 94.7931C395.238 94.8196 396.518 95.2879 397.547 96.1238C398.23 96.6725 399.451 97.8919 398.84 98.7698C398.499 99.2576 396.766 99.4161 396.193 99.5868C397.193 99.1356 401.281 100.05 400.475 101.745C400.109 102.538 398.096 101.83 397.511 101.66V101.843C399.707 103.062 400.597 104.281 400.341 106.976C400.219 108.196 399.634 110.634 398.145 110.769C397.376 110.854 396.498 110.366 396.51 109.549C398.34 111.366 395.754 116.244 393.448 113.841C393.071 113.341 392.902 112.715 392.974 112.093C393.047 111.471 393.356 110.901 393.838 110.5C392.472 109.72 389.507 105.623 391.617 104.464C390.629 104.464 386.066 102.94 387.518 101.635C387.908 103.147 386.017 105.123 384.529 104.342C385.456 106.367 382.711 107.879 381.027 108.001C382.064 109.293 378.892 110.829 377.916 108.952L378.367 108.062Z" fill="#00396A"/>
<path d="M222.254 91.4901C222.254 91.4901 219.595 81.2839 232.821 78.8573L231.808 91.1243L222.254 91.4901Z" fill="#FFA87C"/>
<path d="M169.253 117.243C166.463 117.269 163.703 116.669 161.176 115.488C149.158 109.817 147.828 92.7583 147.755 92.0389C147.676 90.809 148.086 89.5978 148.897 88.6692C149.708 87.7406 150.853 87.1698 152.083 87.0813C153.313 86.9929 154.528 87.3938 155.463 88.1968C156.398 88.9998 156.978 90.1397 157.076 91.3682C157.333 94.8069 159.297 104.306 165.178 107.062C170.058 109.342 177.55 107.062 186.932 100.355C187.943 99.667 189.183 99.4022 190.387 99.6176C191.591 99.833 192.662 100.511 193.371 101.507C194.08 102.503 194.37 103.737 194.179 104.944C193.988 106.151 193.331 107.235 192.35 107.964C183.711 114.146 175.915 117.243 169.253 117.243Z" fill="#CDE5E8"/>
<path d="M194.095 125.962C195.388 122.548 196.596 119.097 197.999 115.719C197.037 115.646 196.08 115.519 195.132 115.341C190.857 114.605 186.873 112.692 183.626 109.817C180.385 106.867 177.878 103.201 176.305 99.1113C174.516 94.392 173.511 89.4123 173.328 84.3689C172.905 72.6133 175.141 60.9137 179.868 50.1409C181.908 45.5561 184.677 41.3313 188.067 37.6301C191.012 34.3822 194.682 31.8754 198.78 30.3138C202.469 29.0418 206.406 28.6616 210.27 29.2042C214.135 29.7468 217.815 31.1968 221.01 33.4354C222.328 30.8016 223.755 28.2043 225.11 25.6192C226.708 22.5707 228.197 19.4491 229.612 16.3153C230.222 14.974 230.747 13.5839 231.308 12.2182C226.504 9.52021 221.283 7.64103 215.861 6.65783C208.298 5.09156 200.468 5.38869 193.045 7.52358C185.923 9.64969 179.35 13.2987 173.78 18.2176C167.83 23.5704 162.923 29.9787 159.309 37.118C151.181 53.1565 147.743 71.1607 149.39 89.0636C150.149 97.0178 152.378 104.762 155.966 111.903C159.321 118.543 164.09 124.37 169.937 128.974C175.591 133.357 182.172 136.393 189.178 137.851C190.886 133.912 192.569 129.998 194.095 125.962Z" fill="#5F96E9"/>
<path d="M257.333 55.8476C256.587 47.8946 254.379 40.1475 250.817 32.9964C247.46 26.3574 242.692 20.5313 236.847 15.9251C235.27 14.6847 233.611 13.5521 231.881 12.5352C231.332 13.9131 230.808 15.291 230.197 16.6323C228.746 19.7662 227.294 22.8878 225.683 25.9484C224.317 28.5457 222.877 31.1552 221.547 33.8134C222.023 34.1792 222.486 34.5451 222.938 34.9475C226.159 37.9248 228.662 41.5938 230.258 45.678C232.103 50.3474 233.147 55.2943 233.345 60.3106C233.775 72.0667 231.539 83.7677 226.806 94.5386C224.773 99.1755 221.963 103.431 218.497 107.123C215.495 110.329 211.803 112.81 207.699 114.378C204.782 115.45 201.675 115.91 198.572 115.731C197.023 119.39 195.717 123.206 194.302 126.938C192.887 130.669 191.325 134.254 189.702 137.839L190.8 138.07C198.365 139.628 206.194 139.327 213.616 137.193C220.737 135.07 227.311 131.425 232.882 126.511C238.845 121.188 243.771 114.809 247.413 107.696C255.554 91.6656 258.997 73.6628 257.345 55.7623L257.333 55.8476Z" fill="#00396A"/>
<path d="M205.051 143.033C197.443 141.7 190.274 138.536 184.163 133.815C178.318 129.209 173.55 123.383 170.193 116.744C166.61 109.597 164.381 101.849 163.616 93.8923C161.964 75.9917 165.407 57.989 173.548 41.9589C177.19 34.8456 182.116 28.4666 188.079 23.1438C193.652 18.225 200.231 14.5797 207.357 12.4621C214.795 10.4385 222.597 10.138 230.168 11.5833C237.74 13.0287 244.881 16.1818 251.049 20.8026C256.893 25.4099 261.66 31.2358 265.019 37.874C268.606 45.0158 270.84 52.7591 271.608 60.713C273.26 78.6136 269.817 96.6163 261.676 112.646C258.031 119.747 253.109 126.117 247.157 131.437C241.589 136.356 235.014 140.001 227.891 142.119C220.465 144.274 212.626 144.588 205.051 143.033ZM209.407 120.28C213.594 121.136 217.937 120.811 221.95 119.341C226.068 117.765 229.767 115.261 232.76 112.025C236.212 108.333 239.016 104.087 241.056 99.4649C243.441 94.1257 245.182 88.5219 246.242 82.7716C247.402 77.003 247.857 71.115 247.596 65.2369C247.385 60.221 246.338 55.2755 244.497 50.6043C242.905 46.5215 240.401 42.8556 237.176 39.886C233.982 37.0441 230.063 35.1408 225.854 34.3865C221.606 33.5026 217.196 33.815 213.116 35.2889C209.021 36.8546 205.351 39.3608 202.403 42.6052C199.008 46.3022 196.239 50.528 194.204 55.116C191.795 60.4819 190.045 66.12 188.995 71.9069C187.86 77.6417 187.413 83.4913 187.665 89.3318C187.84 94.354 188.837 99.3135 190.617 104.013C192.181 108.111 194.689 111.783 197.938 114.732C201.18 117.59 205.149 119.497 209.407 120.243V120.28Z" fill="#73B3FF"/>
<path d="M287.42 74.4676L287.774 91.6243C287.774 91.6243 282.894 96.014 278.489 91.6243L280.1 72.3093L287.42 74.4676Z" fill="#00396A"/>
<path d="M267.203 211.319C266.923 211.099 265.007 210.209 264.763 209.99C263.901 211.313 262.899 212.539 261.774 213.648C262.633 214.335 263.295 215.237 263.692 216.263C264.088 217.29 264.205 218.402 264.031 219.489C263.093 220.31 262.098 221.064 261.054 221.744C258.382 223.061 253.453 224.89 253.453 224.89L265.861 225.866L275.061 216.44C272.307 214.949 269.679 213.236 267.203 211.319Z" fill="#002E4F"/>
<path d="M218.607 211.989C216.63 211.648 214.129 213.209 212.506 211.989C212.286 213.761 212.184 215.545 212.201 217.33L193.899 224.89H217.338C217.545 222.391 217.094 220.013 217.435 217.684C217.582 216.501 218.387 213.136 218.607 211.989Z" fill="#002E4F"/>
<path d="M239.97 128.742L219.229 168.128C219.229 168.128 227.635 175.237 235.907 177.603L251.451 131.193L239.97 128.742Z" fill="#CDE5E8"/>
<path d="M262.677 214.635C263.91 213.3 265.013 211.851 265.971 210.307C260.603 205.71 257.979 200.978 250.695 192.833C247.682 189.455 255.661 170.152 257.601 166.909C261.091 161.092 261.628 156.873 264.348 146.911L244.107 154.471C239.226 171.725 233.663 188.992 239.3 197.223C245.242 205.929 255.808 212.94 260.896 216.44C261.091 216.574 262.506 214.513 262.677 214.635Z" fill="#002E4F"/>
<path d="M228.575 89.4538C228.285 89.4591 228.002 89.3691 227.769 89.1977C227.623 89.0925 227.499 88.9593 227.404 88.8059C227.31 88.6525 227.247 88.4819 227.218 88.304C227.19 88.126 227.197 87.9442 227.239 87.769C227.282 87.5938 227.358 87.4288 227.464 87.2833C228.398 86.0438 229.075 84.63 229.453 83.1252C229.538 82.7877 229.748 82.4948 230.04 82.3055C230.333 82.1162 230.686 82.0445 231.029 82.1047C231.372 82.1649 231.679 82.3527 231.889 82.6302C232.1 82.9077 232.197 83.2545 232.162 83.6007C231.717 85.5124 230.887 87.3133 229.722 88.8929C229.591 89.0726 229.418 89.2177 229.218 89.3154C229.018 89.4132 228.797 89.4607 228.575 89.4538Z" fill="#FFA87C"/>
<path d="M262.921 151.081C268.948 134.534 274.097 108.574 276.025 98.2211C275.052 97.8245 274.058 97.4826 273.047 97.1968C271.254 96.7091 269.119 96.1238 267.276 96.6969C266.37 97.01 265.509 97.4405 264.714 97.9773C264.258 99.3309 263.903 100.717 263.653 102.123C263.653 102.123 250.695 126.864 242.276 143.728C249.448 145.274 256.387 147.746 262.921 151.081Z" fill="#F6EE9E"/>
<path d="M242.02 144.253L239.91 148.521C238.25 151.459 236.457 154.178 234.724 156.788C218.07 181.907 211.774 201.905 210.664 211.392C212.25 212.611 218.265 213.331 220.278 213.672C223.353 197.979 231.344 187.955 245.681 176.115C250.476 172.152 254.063 167.116 257.223 162.934C259.561 159.424 261.42 155.619 262.75 151.618C256.194 148.262 249.224 145.786 242.02 144.253Z" fill="#00396A"/>
<path d="M225.854 151.142C224.754 151.137 223.691 150.744 222.852 150.032C222.014 149.32 221.453 148.336 221.27 147.252C221.086 146.168 221.291 145.054 221.848 144.106C222.405 143.158 223.279 142.437 224.316 142.07C229.978 140.107 238.677 132.315 244.533 124.06C250.915 114.842 257.786 105.973 265.117 97.4895C265.519 97.0079 266.014 96.6123 266.572 96.3261C267.131 96.04 267.741 95.8691 268.367 95.8239C268.993 95.7786 269.622 95.8598 270.216 96.0627C270.809 96.2655 271.356 96.5858 271.824 97.0045C272.291 97.4232 272.669 97.9317 272.935 98.4996C273.202 99.0675 273.351 99.6832 273.374 100.31C273.397 100.937 273.294 101.562 273.07 102.148C272.846 102.734 272.506 103.269 272.071 103.721C264.988 111.938 258.341 120.522 252.159 129.437C246.376 137.632 236.151 147.85 227.379 150.886C226.887 151.052 226.372 151.138 225.854 151.142Z" fill="#FFA87C"/>
<path d="M272.779 99.7697H272.45C271.288 99.6793 270.209 99.1339 269.449 98.2523C268.688 97.3707 268.306 96.2244 268.387 95.0629C268.603 93.1075 269.032 91.1816 269.668 89.3196C270.046 88.2185 270.847 87.3127 271.894 86.8016C272.941 86.2905 274.148 86.2159 275.25 86.5943C276.352 86.9727 277.258 87.773 277.769 88.8192C278.281 89.8654 278.355 91.0718 277.977 92.173C277.581 93.3198 277.307 94.5051 277.159 95.7092C277.071 96.8113 276.571 97.84 275.76 98.5919C274.949 99.3438 273.885 99.7641 272.779 99.7697Z" fill="#FFA87C"/>
<path d="M273.999 95.1361C274.773 96.0168 275.617 96.8325 276.525 97.5748C276.851 97.0073 277.047 96.3741 277.098 95.7214C277.246 94.5173 277.52 93.332 277.916 92.1852C278.256 91.184 278.224 90.0936 277.824 89.1144C277.425 88.1353 276.685 87.3331 275.741 86.8555C274.797 86.3778 273.712 86.2568 272.686 86.5146C271.66 86.7724 270.762 87.3918 270.156 88.2588C270.583 90.7097 272.608 93.5021 273.999 95.1361Z" fill="#FF9D6C"/>
<path d="M285.346 85.6249C285.322 86.7191 285.082 87.7979 284.639 88.7989C284.196 89.7999 283.56 90.7034 282.766 91.4572C281.972 92.211 281.036 92.8003 280.013 93.191C278.99 93.5818 277.9 93.7662 276.805 93.7338C275.71 93.7101 274.631 93.4701 273.629 93.0274C272.628 92.5848 271.724 91.9484 270.97 91.1549C270.215 90.3614 269.626 89.4265 269.235 88.4041C268.844 87.3818 268.659 86.2921 268.692 85.1981L268.814 79.4427C268.839 78.3484 269.08 77.2698 269.523 76.2689C269.967 75.268 270.603 74.3644 271.397 73.6099C272.19 72.8554 273.125 72.2649 274.147 71.8722C275.17 71.4795 276.26 71.2924 277.354 71.3216C278.449 71.3469 279.529 71.5879 280.53 72.031C281.532 72.474 282.436 73.1102 283.191 73.9033C283.946 74.6963 284.536 75.6304 284.929 76.6521C285.322 77.6738 285.51 78.763 285.48 79.8572L285.346 85.6249Z" fill="#FFA87C"/>
<path d="M219.253 149.862C216.985 149.779 214.755 149.253 212.689 148.313C212.377 148.157 212.136 147.888 212.015 147.56C211.893 147.233 211.901 146.872 212.035 146.55C212.17 146.228 212.422 145.969 212.741 145.826C213.059 145.682 213.42 145.665 213.75 145.777C217.411 147.301 220.254 147.521 222.084 146.411C222.394 146.223 222.767 146.167 223.119 146.254C223.472 146.341 223.775 146.564 223.963 146.874C224.15 147.185 224.207 147.557 224.12 147.909C224.033 148.261 223.81 148.565 223.499 148.752C222.214 149.508 220.744 149.893 219.253 149.862Z" fill="#FFA87C"/>
<path d="M220.9 151.849C218.894 151.797 216.902 151.494 214.971 150.947L214.348 150.801C214.022 150.692 213.748 150.464 213.581 150.164C213.414 149.863 213.365 149.511 213.445 149.176C213.524 148.841 213.726 148.548 214.011 148.355C214.295 148.161 214.642 148.081 214.983 148.13L215.617 148.277C218.994 149.353 222.618 149.383 226.013 148.362C226.187 148.315 226.37 148.303 226.549 148.327C226.729 148.351 226.901 148.411 227.057 148.503C227.213 148.595 227.349 148.717 227.456 148.863C227.564 149.008 227.642 149.174 227.684 149.35C227.773 149.702 227.719 150.075 227.534 150.388C227.349 150.701 227.048 150.928 226.696 151.02C224.807 151.54 222.859 151.818 220.9 151.849Z" fill="#FFA87C"/>
<path d="M219.155 147.155C216.437 147.114 213.817 146.127 211.749 144.362C211.616 144.241 211.507 144.095 211.43 143.931C211.354 143.768 211.31 143.591 211.302 143.411C211.294 143.231 211.322 143.051 211.384 142.881C211.446 142.712 211.541 142.556 211.664 142.424C211.912 142.159 212.254 142.003 212.617 141.987C212.979 141.971 213.333 142.097 213.604 142.338C214.634 143.204 215.851 143.819 217.16 144.134C218.468 144.45 219.832 144.457 221.144 144.155C221.319 144.108 221.501 144.096 221.681 144.12C221.86 144.144 222.033 144.204 222.189 144.296C222.344 144.388 222.48 144.511 222.588 144.656C222.696 144.802 222.773 144.967 222.816 145.143C222.905 145.495 222.851 145.869 222.666 146.182C222.481 146.494 222.179 146.722 221.827 146.813C220.954 147.036 220.057 147.15 219.155 147.155Z" fill="#FFA87C"/>
<path d="M222.035 145.679H221.876C220.531 145.553 219.233 145.123 218.079 144.421C216.925 143.72 215.946 142.766 215.214 141.631C215.036 141.308 214.994 140.927 215.097 140.572C215.2 140.218 215.44 139.919 215.763 139.741C216.087 139.563 216.468 139.521 216.823 139.624C217.177 139.727 217.477 139.966 217.655 140.29C218.167 141.05 218.845 141.685 219.637 142.147C220.429 142.61 221.316 142.888 222.23 142.96C222.592 142.981 222.932 143.145 223.173 143.416C223.414 143.687 223.538 144.043 223.517 144.405C223.496 144.767 223.332 145.106 223.061 145.348C222.79 145.589 222.434 145.713 222.071 145.692L222.035 145.679Z" fill="#FFA87C"/>
<path d="M238.445 91.4414H238.226C235.956 91.0633 229.685 90.0878 228.294 90.0878C228.103 90.1059 227.91 90.0838 227.728 90.0231C227.546 89.9623 227.378 89.8642 227.236 89.7351C227.094 89.606 226.981 89.4486 226.903 89.2731C226.826 89.0976 226.786 88.9079 226.786 88.716C226.786 88.5242 226.826 88.3344 226.903 88.1589C226.981 87.9834 227.094 87.8261 227.236 87.697C227.378 87.5678 227.546 87.4697 227.728 87.409C227.91 87.3483 228.103 87.3262 228.294 87.3442C230.222 87.3442 237.811 88.5636 238.677 88.7343C239.012 88.7979 239.312 88.9834 239.518 89.2549C239.724 89.5265 239.823 89.8648 239.794 90.2045C239.765 90.5442 239.611 90.8612 239.362 91.0942C239.113 91.3271 238.786 91.4595 238.445 91.4657V91.4414Z" fill="#FFA87C"/>
<path d="M237.567 94.3191C237.449 94.3363 237.33 94.3363 237.213 94.3191C234.05 93.4404 230.829 92.7844 227.574 92.3559C227.212 92.3308 226.873 92.1649 226.632 91.8937C226.39 91.6225 226.264 91.2676 226.281 90.9048C226.29 90.7243 226.335 90.5474 226.413 90.3844C226.492 90.2215 226.601 90.0756 226.737 89.9554C226.872 89.8352 227.029 89.7429 227.2 89.684C227.371 89.6251 227.552 89.6007 227.733 89.6123C231.178 90.0504 234.587 90.7392 237.933 91.673C238.264 91.75 238.555 91.9478 238.749 92.2279C238.942 92.5079 239.024 92.8499 238.978 93.187C238.932 93.5242 238.762 93.832 238.501 94.0504C238.24 94.2688 237.907 94.382 237.567 94.3679V94.3191Z" fill="#FFA87C"/>
<path d="M236.908 97.3432C236.766 97.343 236.626 97.3182 236.493 97.27C230.307 95.2824 228.782 95.1605 227.952 95.0873C227.565 95.0714 227.181 95.0142 226.805 94.9166C226.621 94.8794 226.446 94.8048 226.292 94.6976C226.137 94.5903 226.006 94.4526 225.907 94.2929C225.808 94.1332 225.742 93.9549 225.715 93.769C225.687 93.583 225.698 93.3934 225.746 93.2117C225.794 93.0301 225.879 92.8602 225.996 92.7126C226.112 92.565 226.258 92.4428 226.423 92.3535C226.589 92.2642 226.771 92.2097 226.958 92.1933C227.146 92.1769 227.335 92.1991 227.513 92.2584C227.728 92.315 227.949 92.3477 228.172 92.3559C229.16 92.4413 230.832 92.5754 237.323 94.6605C237.631 94.765 237.892 94.975 238.06 95.2534C238.228 95.5319 238.292 95.8607 238.241 96.1819C238.19 96.503 238.027 96.7957 237.781 97.0082C237.535 97.2208 237.221 97.3394 236.896 97.3432H236.908Z" fill="#FFA87C"/>
<path d="M234.199 99.538H234.09C227.904 99.0869 227.647 95.7336 227.635 95.3434H230.38V95.258C230.38 95.258 230.661 96.5993 234.297 96.8554C234.639 96.8976 234.953 97.0665 235.177 97.3287C235.401 97.5909 235.518 97.9274 235.506 98.2719C235.494 98.6164 235.353 98.9437 235.111 99.1894C234.869 99.4351 234.544 99.5812 234.199 99.599V99.538Z" fill="#FFA87C"/>
<path d="M229.002 97.9163C228.036 97.5337 227.003 97.3472 225.964 97.3676C224.402 97.3676 222.303 94.7093 222.303 91.9657C222.303 91.9657 221.535 83.869 230.1 87.5271L229.002 97.9163Z" fill="#FFA87C"/>
<path d="M255.966 121.975L243.96 181.029C243.96 181.029 262.555 185.504 273.951 178.944L276.83 96.892C276.83 96.892 264.08 92.4413 255.966 121.975Z" fill="#CDE5E8"/>
<path d="M258.748 154.471L270.241 153.849C270.241 153.849 270.51 171.421 263.653 170.738C263.653 170.738 254.246 172.786 258.748 154.471Z" fill="#E1F3F6"/>
<path d="M273.181 95.4775C271.826 94.2616 270.042 93.6338 268.223 93.7321C266.404 93.8304 264.698 94.6469 263.482 96.0018C256.096 104.569 249.172 113.524 242.74 122.828C241.947 123.95 241.093 125.084 240.165 126.206L238.945 127.706L240.275 129.108C241.691 130.608 243.179 132.059 244.619 133.461L246.937 135.766L248.633 137.473L250.183 135.632C251.561 133.986 252.83 132.339 253.965 130.754C260.099 121.912 266.689 113.393 273.706 105.233C274.315 104.559 274.784 103.771 275.088 102.916C275.391 102.06 275.522 101.153 275.473 100.246C275.424 99.3395 275.197 98.4516 274.803 97.6332C274.41 96.8149 273.859 96.0823 273.181 95.4775Z" fill="#E1F3F6"/>
<path d="M241.648 122.405L237.008 127.566L249.088 138.413L253.728 133.252L241.648 122.405Z" fill="#F8FDFF"/>
<path d="M260.395 88.9172L270.961 93.0509C270.961 93.0509 275.451 71.224 272.181 67.9439C272.169 67.9439 260.395 66.8343 260.395 88.9172Z" fill="#00396A"/>
<path d="M272.779 71.7483C273.157 72.3093 281.32 77.7721 287.774 76.2601C287.774 76.2601 286.676 66.6026 271.669 67.9927L272.779 71.7483Z" fill="#00396A"/>
<path d="M279.111 82.0643C279.114 82.974 278.846 83.864 278.342 84.6216C277.838 85.3792 277.12 85.9703 276.28 86.3201C275.44 86.6699 274.515 86.7627 273.622 86.5867C272.728 86.4107 271.908 85.9739 271.263 85.3314C270.619 84.689 270.179 83.8699 270.001 82.9778C269.822 82.0858 269.913 81.1608 270.261 80.3201C270.608 79.4794 271.198 78.7607 271.955 78.255C272.711 77.7494 273.601 77.4795 274.511 77.4794C275.115 77.4778 275.713 77.5952 276.271 77.8249C276.829 78.0546 277.336 78.3921 277.763 78.818C278.191 79.2439 278.53 79.7499 278.761 80.3069C278.992 80.864 279.111 81.4612 279.111 82.0643V82.0643Z" stroke="#DDDD67" stroke-width="0.87" stroke-miterlimit="10"/>
<path d="M289.47 82.9423C289.47 83.7309 289.236 84.5018 288.798 85.1575C288.359 85.8133 287.736 86.3243 287.007 86.6261C286.278 86.9279 285.476 87.0069 284.702 86.853C283.928 86.6992 283.217 86.3194 282.659 85.7618C282.101 85.2041 281.721 84.4936 281.567 83.7202C281.413 82.9467 281.492 82.145 281.794 81.4164C282.096 80.6878 282.608 80.065 283.264 79.6269C283.92 79.1888 284.691 78.9549 285.48 78.9549C286.005 78.9533 286.524 79.0553 287.009 79.2551C287.494 79.455 287.934 79.7486 288.305 80.1192C288.676 80.4898 288.97 80.93 289.17 81.4145C289.37 81.899 289.472 82.4182 289.47 82.9423Z" stroke="#DDDD67" stroke-width="0.75" stroke-miterlimit="10"/>
<path d="M279.111 82.0643C279.51 81.8964 279.946 81.8372 280.374 81.8929C280.803 81.9486 281.209 82.1172 281.552 82.3813" stroke="#DDDD67" stroke-width="0.87" stroke-miterlimit="10"/>
<path d="M145.522 90.0756H145.193C144.031 89.9914 142.95 89.4495 142.188 88.5691C141.427 87.6887 141.046 86.542 141.13 85.381C141.333 83.4196 141.763 81.4883 142.411 79.6255C142.599 79.0803 142.893 78.5775 143.276 78.1457C143.658 77.714 144.122 77.3618 144.641 77.1093C145.16 76.8568 145.724 76.7089 146.3 76.6741C146.876 76.6393 147.453 76.7182 147.999 76.9063C148.544 77.0945 149.047 77.3882 149.479 77.7707C149.911 78.1532 150.264 78.6169 150.517 79.1355C150.769 79.6541 150.917 80.2174 150.952 80.7931C150.987 81.3689 150.908 81.9459 150.72 82.4911C150.324 83.6345 150.046 84.8153 149.89 86.0151C149.813 87.1193 149.318 88.1528 148.508 88.9067C147.697 89.6605 146.629 90.0784 145.522 90.0756Z" fill="#FFA87C"/>
<path d="M142.911 211.965C147.22 213.98 151.885 215.124 156.637 215.33C161.384 206.892 175.683 184.029 162.677 165.275L144.278 155.386C144.278 155.386 162.677 174.579 142.911 211.965Z" fill="#002E4F"/>
<path d="M152.428 219.44C152.428 219.44 154.124 215.989 155.454 213.684C154.466 213.562 150 213.379 148.133 212.672C145.761 216.945 143.052 221.023 140.032 224.866H164.751L152.428 219.44Z" fill="#002E4F"/>
<path d="M183.004 166.372C179.929 160.41 157.601 142.448 155.588 132.132C155.405 131.218 155.246 130.279 155.112 129.328C151.525 131.218 146.876 131.766 143.192 131.925C139.007 132.132 136.505 132.388 132.455 130.425C132.796 136.827 131.759 143.009 135.493 149.484C142.911 162.361 167.545 173.372 170.302 177.627C175.72 186.017 177.623 204.222 179.441 215.33C182.345 215.33 189.202 215.196 192.045 214.196C191.093 208.502 192.642 185.053 183.004 166.372Z" fill="#00396A"/>
<path d="M190.702 218.44C190.702 218.44 189.897 215.196 189.665 213.684C186.835 214.672 185.188 213.684 182.345 213.684C182.784 216.44 182.455 221.586 182.711 224.659H206.149L190.702 218.44Z" fill="#002E4F"/>
<path d="M143.362 135.29C146.925 135.132 154.429 134.132 157.43 131.132C156.82 126.255 154.624 118.353 155.405 112.012C158.016 90.5146 147.511 84.0763 147.511 84.0763C147.511 84.0763 142.63 80.6986 138.763 84.7348C132.845 90.8317 127.086 108.013 127.66 133.437C131.735 135.534 139.08 135.485 143.362 135.29Z" fill="#CDE5E8"/>
<path d="M197.218 142.07C196.861 142.069 196.506 142.032 196.157 141.96C179.234 138.034 164.91 127.901 154.673 112.695C150.092 105.915 146.601 98.4594 144.326 90.6C144.074 89.4187 144.29 88.1857 144.928 87.1599C145.566 86.1341 146.577 85.3954 147.749 85.0987C148.921 84.802 150.162 84.9706 151.211 85.5689C152.261 86.1672 153.038 87.1488 153.38 88.3075C155.445 95.2502 158.573 101.831 162.652 107.818C171.62 121.097 183.602 129.559 198.267 132.961C199.393 133.21 200.386 133.866 201.056 134.803C201.725 135.74 202.024 136.893 201.893 138.037C201.763 139.181 201.213 140.237 200.349 141C199.486 141.762 198.37 142.179 197.218 142.168V142.07Z" fill="#FFA87C"/>
<path d="M186.932 128.059C177.326 123.396 169.169 116.21 163.335 107.269C159.319 101.369 156.232 94.8878 154.185 88.0515C154.009 87.3514 153.698 86.6929 153.267 86.1138C152.836 85.5347 152.295 85.0464 151.675 84.6769C151.055 84.3075 150.367 84.0643 149.653 83.9612C148.938 83.8581 148.21 83.8972 147.511 84.0763C146.812 84.2515 146.154 84.5628 145.575 84.9925C144.997 85.4222 144.509 85.9617 144.139 86.5802C143.77 87.1987 143.526 87.884 143.422 88.5968C143.318 89.3096 143.356 90.0359 143.533 90.7341V90.8438C145.614 99.5324 149.158 107.804 154.014 115.305C161.809 127.244 173.057 136.529 186.261 141.924C186.359 141.962 186.462 141.982 186.566 141.985C186.732 141.985 186.894 141.934 187.03 141.838C187.141 141.762 187.233 141.66 187.296 141.542C187.36 141.423 187.394 141.29 187.396 141.155V128.803C187.399 128.648 187.357 128.495 187.274 128.363C187.192 128.231 187.073 128.125 186.932 128.059Z" fill="#E1F3F6"/>
<path d="M200.683 142.411C199.085 142.398 197.491 142.231 195.925 141.911C195.59 141.818 195.303 141.601 195.122 141.306C194.94 141.01 194.877 140.656 194.945 140.316C195.012 139.975 195.206 139.673 195.488 139.469C195.769 139.265 196.117 139.175 196.462 139.217C200.549 140.034 203.965 139.729 206.601 138.327C206.925 138.158 207.302 138.123 207.652 138.231C208.001 138.338 208.294 138.578 208.467 138.9C208.552 139.059 208.605 139.233 208.622 139.413C208.639 139.592 208.621 139.773 208.567 139.946C208.514 140.118 208.427 140.278 208.311 140.417C208.196 140.555 208.054 140.67 207.894 140.753C205.666 141.896 203.187 142.466 200.683 142.411Z" fill="#FFA87C"/>
<path d="M200.878 139.375C200.205 139.373 199.532 139.324 198.865 139.229C198.676 139.215 198.493 139.162 198.325 139.073C198.158 138.985 198.011 138.863 197.892 138.715C197.774 138.567 197.688 138.397 197.638 138.214C197.589 138.031 197.578 137.84 197.606 137.653C197.633 137.466 197.699 137.287 197.8 137.126C197.9 136.965 198.032 136.827 198.188 136.72C198.344 136.613 198.52 136.539 198.706 136.502C198.892 136.466 199.083 136.469 199.268 136.51C202.216 136.813 205.188 136.236 207.809 134.851C208.125 134.674 208.498 134.629 208.847 134.725C209.196 134.821 209.494 135.05 209.675 135.363C209.767 135.518 209.826 135.69 209.851 135.868C209.875 136.046 209.863 136.227 209.817 136.401C209.77 136.575 209.689 136.737 209.579 136.88C209.469 137.022 209.332 137.141 209.175 137.229C206.62 138.595 203.776 139.331 200.878 139.375Z" fill="#FFA87C"/>
<path d="M199.658 136.632H199.011C198.659 136.592 198.335 136.417 198.108 136.145C197.88 135.872 197.767 135.522 197.791 135.168C197.801 134.988 197.846 134.812 197.924 134.65C198.003 134.487 198.113 134.342 198.248 134.223C198.383 134.104 198.541 134.013 198.712 133.955C198.883 133.898 199.063 133.875 199.243 133.888C200.152 133.973 201.068 133.856 201.927 133.547C202.785 133.237 203.564 132.741 204.209 132.096C204.448 131.843 204.773 131.69 205.12 131.667C205.467 131.644 205.81 131.753 206.08 131.972C206.35 132.191 206.528 132.503 206.577 132.847C206.625 133.192 206.543 133.541 206.344 133.827C205.495 134.744 204.458 135.469 203.305 135.953C202.152 136.437 200.908 136.668 199.658 136.632Z" fill="#FFA87C"/>
<path d="M194.912 134.327C194.57 134.295 194.253 134.136 194.022 133.883C193.791 133.629 193.663 133.298 193.663 132.955C193.663 132.612 193.791 132.281 194.022 132.028C194.253 131.774 194.57 131.616 194.912 131.583C195.766 131.544 196.602 131.317 197.359 130.919C198.116 130.52 198.776 129.96 199.292 129.279C199.499 128.98 199.817 128.775 200.175 128.71C200.533 128.645 200.902 128.724 201.201 128.931C201.501 129.138 201.706 129.456 201.771 129.813C201.836 130.171 201.756 130.54 201.549 130.84C200.777 131.883 199.779 132.739 198.63 133.343C197.481 133.947 196.21 134.283 194.912 134.327Z" fill="#FFA87C"/>
<path d="M190.422 103.343C190.204 103.343 189.99 103.291 189.797 103.192C189.603 103.092 189.437 102.947 189.311 102.769C188.145 101.195 187.315 99.3978 186.871 97.4895C186.824 97.305 186.815 97.1126 186.846 96.9246C186.876 96.7365 186.945 96.5568 187.049 96.3969C187.153 96.2369 187.288 96.1002 187.447 95.9953C187.607 95.8904 187.786 95.8197 187.974 95.7875C188.162 95.7554 188.354 95.7626 188.539 95.8086C188.724 95.8545 188.898 95.9384 189.049 96.0548C189.2 96.1712 189.325 96.3176 189.416 96.4848C189.508 96.652 189.563 96.8363 189.58 97.0261C189.965 98.5248 190.641 99.9334 191.569 101.172C191.675 101.317 191.752 101.483 191.794 101.658C191.836 101.833 191.843 102.015 191.815 102.193C191.787 102.371 191.723 102.541 191.629 102.695C191.534 102.848 191.41 102.981 191.264 103.086C191.018 103.26 190.723 103.35 190.422 103.343Z" fill="#FFA87C"/>
<path d="M190.715 104.013H190.446C187.457 103.616 184.445 103.42 181.43 103.428C181.239 103.446 181.046 103.424 180.864 103.363C180.682 103.302 180.514 103.204 180.372 103.075C180.23 102.946 180.117 102.789 180.039 102.613C179.961 102.438 179.921 102.248 179.921 102.056C179.921 101.864 179.961 101.674 180.039 101.499C180.117 101.323 180.23 101.166 180.372 101.037C180.514 100.908 180.682 100.81 180.864 100.749C181.046 100.688 181.239 100.666 181.43 100.684C184.621 100.673 187.809 100.885 190.971 101.318C191.296 101.394 191.583 101.584 191.778 101.855C191.974 102.125 192.064 102.458 192.033 102.79C192.001 103.122 191.85 103.432 191.608 103.661C191.366 103.891 191.048 104.024 190.715 104.038V104.013Z" fill="#FFA87C"/>
<path d="M180.673 106.806C180.311 106.828 179.954 106.706 179.682 106.466C179.41 106.226 179.244 105.887 179.221 105.525C179.199 105.163 179.321 104.807 179.561 104.535C179.802 104.262 180.14 104.097 180.503 104.074C181.381 103.964 189.043 103.025 191.581 103.464C191.919 103.549 192.212 103.759 192.401 104.051C192.591 104.343 192.662 104.696 192.602 105.039C192.542 105.382 192.354 105.689 192.076 105.899C191.799 106.109 191.452 106.207 191.105 106.171C189.531 105.891 183.98 106.403 180.844 106.793L180.673 106.806Z" fill="#FFA87C"/>
<path d="M182.491 109.915C182.158 109.902 181.84 109.768 181.598 109.539C181.356 109.309 181.205 109 181.174 108.667C181.142 108.335 181.233 108.003 181.428 107.732C181.623 107.462 181.91 107.271 182.235 107.196C184.214 106.862 186.163 106.377 188.067 105.745C188.812 105.501 189.751 105.208 191.154 104.794C191.503 104.699 191.875 104.746 192.189 104.923C192.504 105.1 192.737 105.393 192.838 105.74C192.938 106.086 192.899 106.459 192.728 106.777C192.557 107.094 192.268 107.333 191.923 107.44C190.556 107.83 189.678 108.11 188.897 108.366C186.904 109.026 184.865 109.535 182.797 109.891L182.491 109.915Z" fill="#FFA87C"/>
<path d="M185.419 112.098C185.078 112.091 184.752 111.959 184.503 111.726C184.254 111.493 184.1 111.176 184.071 110.836C184.042 110.497 184.14 110.158 184.347 109.887C184.553 109.615 184.852 109.43 185.188 109.366C189.629 108.61 190.519 106.927 190.519 106.927C190.652 106.604 190.902 106.344 191.22 106.198C191.537 106.052 191.898 106.032 192.229 106.142C192.561 106.252 192.838 106.484 193.006 106.79C193.173 107.097 193.218 107.455 193.13 107.793C192.96 108.33 191.776 111.025 185.651 112.073L185.419 112.098Z" fill="#FFA87C"/>
<path d="M190.715 110.439L189.666 99.2576C191.032 99.3668 192.304 100 193.213 101.025C194.123 102.051 194.601 103.388 194.546 104.757C194.558 106.452 194.058 108.379 190.715 110.439Z" fill="#FFA87C"/>
<path d="M159.809 74.0042C160.401 76.2533 160.075 78.6451 158.904 80.6546C157.733 82.6641 155.812 84.1271 153.562 84.7225C151.31 85.3173 148.914 84.9937 146.9 83.8229C144.887 82.6521 143.421 80.73 142.826 78.4793L141.276 72.6019C140.979 71.4882 140.906 70.327 141.058 69.1847C141.211 68.0423 141.588 66.9414 142.167 65.9447C142.746 64.9481 143.516 64.0753 144.433 63.3764C145.35 62.6774 146.396 62.166 147.511 61.8714C148.626 61.5752 149.789 61.5018 150.932 61.6555C152.076 61.8091 153.178 62.1867 154.175 62.7666C155.173 63.3466 156.046 64.1175 156.745 65.0352C157.443 65.9528 157.954 66.9993 158.248 68.1146L159.809 74.0042Z" fill="#FFA87C"/>
<path d="M158.98 70.8826C158.397 72.7664 157.343 74.4704 155.917 75.8333C154.099 77.3379 151.908 78.3228 149.575 78.6835C147.242 79.0441 144.855 78.7671 142.667 77.8819L142.826 78.4793C143.464 80.6798 144.938 82.5436 146.933 83.6728C148.928 84.802 151.285 85.1071 153.502 84.523C155.719 83.9389 157.62 82.5119 158.798 80.5465C159.976 78.5812 160.339 76.2334 159.809 74.0042L158.98 70.8826Z" fill="#00396A"/>
<path d="M142.801 78.1623C139.507 76.0406 135.944 68.0049 141.154 66.249C144.375 65.1515 143.082 75.0773 143.082 77.8819L142.801 78.1623Z" fill="#00396A"/>
<path d="M140.154 66.9074C136.176 64.0175 141.118 55.8598 150.952 55.8598C157.052 55.8598 157.052 60.5179 152.794 63.0298C149.292 65.1149 143.887 63.8955 141.264 67.4561L140.154 66.9074Z" fill="#00396A"/>
<path d="M158.98 72.6873C157.059 69.8614 155.319 66.9168 153.77 63.8712C153.087 62.3469 152.159 59.7375 155.234 61.5909C157.796 63.1395 159.199 68.6146 158.955 71.346L158.98 72.6873Z" fill="#00396A"/>
<path d="M89.4095 92.1974C87.8167 93.5414 86.2975 94.9702 84.8585 96.4774L65.0317 137.863L79.7828 118.816L95.4612 86.4419C93.4236 88.3807 91.447 90.3073 89.4095 92.1974Z" fill="#00396A"/>
<path d="M77.6478 85.4054C79.0875 83.4422 80.4662 81.1376 82.1012 79.1012L47.4014 62.1762L14.4585 65.4685L72.1451 92.051C74.0607 89.8927 75.9641 87.7101 77.6478 85.4054Z" fill="#00396A"/>
<path d="M82.6011 79.3451C80.7587 81.6497 79.258 84.3689 77.4888 86.515C75.9027 88.4539 74.3044 90.3805 72.6694 92.2827L98.9017 104.367L108.419 91.9413L82.6011 79.3451Z" fill="#5F96E9"/>
<path d="M43.1063 127.377L53.282 106.135L0 80.6498L8.54074 62.7859L96.2908 11.1329L120.229 22.5951L85.0414 96.0628L99.524 103.001L89.7632 123.523L75.2561 116.585L65.0927 137.827L43.1063 127.377ZM82.5768 44.9708L81.2346 44.3245L34.2972 71.785L63.1283 85.5761L82.5768 44.9708Z" fill="#73B3FF"/>
<path d="M99.5604 103.013L108.418 91.9413L101.464 107.366L89.3848 124.231L99.5604 103.013Z" fill="#00396A"/>
<path d="M96.1567 85.82L130.759 10.0111L120.266 22.5951L85.0781 96.0628C86.0298 95.1239 95.5954 86.3809 96.1567 85.82Z" fill="#00396A"/>
<path d="M8.55273 62.7859L24.1945 49.1776L109.931 0L96.3028 11.1329L8.55273 62.7859Z" fill="#B0D4FF"/>
<path d="M96.3027 11.1329L120.253 22.5951L130.759 10.0233L109.931 0L96.3027 11.1329Z" fill="#8DBFFA"/>
<path d="M66.9105 66.505C63.9701 64.4077 61.9447 65.2856 60.5294 65.5539C59.5826 65.6802 58.6219 65.464 57.8207 64.9442C57.6701 64.8465 57.5017 64.7795 57.3252 64.7468C57.1486 64.7142 56.9674 64.7166 56.7917 64.754C56.6161 64.7913 56.4496 64.8629 56.3017 64.9646C56.1537 65.0663 56.0273 65.1961 55.9295 65.3466C55.8318 65.4971 55.7647 65.6654 55.732 65.8419C55.6994 66.0183 55.7018 66.1995 55.7392 66.375C55.7766 66.5505 55.8482 66.7169 55.9499 66.8647C56.0517 67.0126 56.1816 67.139 56.3322 67.2366C57.3756 67.855 58.5069 68.3113 59.6875 68.5902C57.4059 70.6753 55.0755 73.1872 54.9413 73.3335C54.8187 73.466 54.7236 73.6215 54.6615 73.791C54.5994 73.9604 54.5715 74.1405 54.5794 74.3208C54.5874 74.501 54.631 74.678 54.7078 74.8413C54.7845 75.0046 54.8929 75.1511 55.0267 75.2724C55.2792 75.5043 55.611 75.6309 55.954 75.626C56.1437 75.625 56.3312 75.5857 56.5053 75.5102C56.6794 75.4348 56.8363 75.3248 56.9666 75.187C56.9666 75.187 58.6138 73.4067 60.4195 71.663C58.7358 73.7725 57.1619 75.9552 56.869 76.3576C56.7207 76.5637 56.6321 76.8067 56.6132 77.0599C56.5943 77.313 56.6458 77.5665 56.7619 77.7923C56.878 78.0181 57.0543 78.2074 57.2713 78.3394C57.4883 78.4714 57.7375 78.5409 57.9915 78.5403C58.2087 78.5389 58.4224 78.4863 58.6154 78.3867C58.8083 78.2871 58.975 78.1434 59.1018 77.9672C60.0047 76.7478 61.2736 75.0163 62.4815 73.4921C62.0301 74.3822 61.4566 75.3943 60.3219 77.2356C60.2258 77.3882 60.1608 77.5585 60.1308 77.7364C60.1009 77.9143 60.1065 78.0964 60.1473 78.2721C60.1881 78.4478 60.2634 78.6137 60.3688 78.7602C60.4742 78.9067 60.6075 79.0309 60.7612 79.1256C61.0706 79.3165 61.443 79.3774 61.7972 79.2952C62.1514 79.213 62.4587 78.9943 62.6523 78.6866L63.8724 76.76C63.7534 77.0543 63.7407 77.3808 63.8365 77.6835C63.9322 77.9861 64.1304 78.2459 64.3971 78.4184C64.6193 78.5606 64.8775 78.6367 65.1414 78.6379C65.3695 78.6391 65.5942 78.5828 65.7947 78.4741C65.9952 78.3653 66.1649 78.2078 66.2882 78.016C67.3126 76.5395 68.0532 74.8856 68.4722 73.1384H68.5333C69.2409 69.334 68.3136 67.5049 66.9105 66.505ZM64.1409 76.1625C64.5923 75.3699 64.8973 74.7602 65.1902 74.1627C64.8925 74.8553 64.5416 75.5239 64.1409 76.1625Z" fill="#FFA87C"/>
<path d="M24.8536 82.0643C20.51 81.8204 14.1899 90.3195 20.6442 92.6363C14.8121 92.5022 13.3236 100.757 18.7287 103.038C9.35825 101.209 10.4441 113.354 14.8853 117.756C14.1316 117.662 13.3665 117.739 12.6469 117.982C11.9272 118.224 11.2715 118.626 10.7286 119.157C10.1858 119.688 9.76965 120.334 9.51126 121.048C9.25288 121.761 9.15887 122.524 9.23624 123.279C9.69988 126.425 10.9444 130.791 18.7409 133.132C26.5373 135.473 31.3079 131.096 35.1879 126.962C37.6281 132.035 49.939 125.182 48.6091 119.121C53.2333 120.755 57.3816 115.463 57.4792 111.305C57.5768 107.147 54.6974 104.086 51.9643 101.428C53.8921 99.66 54.2582 96.4042 53.7457 93.9045C52.9038 89.7586 47.7184 89.3562 47.7184 86.0517C47.7184 84.9055 47.938 81.3205 46.9497 79.7475C45.388 77.2356 42.6671 74.7602 39.2386 75.9796C24.8536 69.1511 24.8536 82.0643 24.8536 82.0643Z" fill="#00396A"/>
<path d="M33.2477 215.33C29.2946 214.635 28.6479 214.83 24.707 213.879L15.6538 224.951H50.8051L30.3927 219.464L33.2477 215.33Z" fill="#002E4F"/>
<path d="M98.7187 218.501L96.6324 215.769C94.7818 217.005 92.7862 218.008 90.6904 218.757L96.2419 224.951H116.837L98.7187 218.501Z" fill="#002E4F"/>
<path d="M21.0103 215.367C24.9512 216.33 28.8921 217.33 32.8819 218.001L61.9082 182.31L57.0278 168.128L36.7008 144.704L42.5573 177.895L21.0103 215.367Z" fill="#002E4F"/>
<path d="M60.4807 134.876C52.5256 132.766 41.7154 135.437 33.9678 138.363C33.9678 138.363 38.7262 157.276 41.8497 162.909C50.9273 179.334 90.2391 220.33 90.2391 220.33C92.3987 219.598 96.5592 216.562 98.4626 215.33L60.4807 134.876Z" fill="#00396A"/>
<path d="M32.9307 145.753C40.6173 142.875 56.1127 137.997 63.9702 139.973C63.9702 139.973 53.4773 115.366 48.7189 109.939C45.51 106.281 27.9771 95.9531 27.9771 109.439C28.1842 121.697 29.8471 133.887 32.9307 145.753Z" fill="#CDE5E8"/>
<path d="M39.7391 108.293L39.434 108.391C38.308 108.693 37.108 108.537 36.0971 107.956C35.0862 107.375 34.3468 106.418 34.0412 105.294C33.5987 103.373 33.3655 101.411 33.3457 99.4405C33.4051 98.3147 33.8943 97.2545 34.7127 96.4786C35.5311 95.7027 36.6161 95.2701 37.7442 95.2701C38.8722 95.2701 39.9573 95.7027 40.7757 96.4786C41.594 97.2545 42.0833 98.3147 42.1427 99.4405C42.1376 100.671 42.2685 101.897 42.5331 103.099C42.793 104.157 42.6512 105.273 42.1352 106.233C41.6191 107.192 40.7654 107.926 39.7391 108.293Z" fill="#FFA87C"/>
<path d="M42.7039 104.013C42.685 103.692 42.636 103.374 42.5575 103.062C42.2929 101.861 42.162 100.634 42.1671 99.4039C42.1077 98.2781 41.6184 97.2179 40.8001 96.442C39.9817 95.6661 38.8967 95.2335 37.7686 95.2335C36.6406 95.2335 35.5555 95.6661 34.7371 96.442C33.9188 97.2179 33.4295 98.2781 33.3701 99.4039C33.3701 99.4649 33.3701 99.599 33.3701 99.7819C35.5419 102.257 39.1168 103.416 42.7039 104.013Z" fill="#FFA87C"/>
<path d="M47.0594 90.7829C47.74 92.8769 47.5607 95.1554 46.5609 97.1173C45.561 99.0793 43.8225 100.564 41.7275 101.245C39.6305 101.922 37.3505 101.742 35.3863 100.743C33.4222 99.7447 31.9337 98.0092 31.2468 95.9165L29.4654 90.4293C29.1287 89.3916 28.9998 88.2979 29.0861 87.2104C29.1724 86.123 29.4723 85.0632 29.9686 84.0916C30.4648 83.12 31.1478 82.2557 31.9784 81.5479C32.8091 80.8402 33.7711 80.303 34.8095 79.967C36.9048 79.2901 39.1832 79.4708 41.1454 80.4697C43.1076 81.4685 44.5937 83.2039 45.278 85.2957L47.0594 90.7829Z" fill="#FFA87C"/>
<path d="M95.9371 86.3687C95.7658 86.2319 95.5655 86.136 95.3515 86.0883L96.0103 85.3688C96.1337 85.2371 96.2297 85.0823 96.2928 84.9133C96.3559 84.7443 96.3849 84.5644 96.3781 84.3842C96.3713 84.2039 96.3288 84.0268 96.2532 83.863C96.1775 83.6992 96.0701 83.5521 95.9371 83.43L95.7175 83.2593C95.9041 82.9894 95.9881 82.6618 95.9546 82.3354C95.921 82.0091 95.7721 81.7054 95.5345 81.479C95.3494 81.3072 95.1203 81.1901 94.8726 81.1406C94.6249 81.0911 94.3684 81.1111 94.1314 81.1985C94.7536 80.5645 95.1441 80.1255 95.1929 80.0767C95.4012 79.7994 95.4973 79.4539 95.462 79.1089C95.4266 78.764 95.2624 78.4451 95.0022 78.2158C94.7419 77.9865 94.4048 77.8636 94.0579 77.8718C93.7111 77.88 93.38 78.0185 93.1309 78.2598C91.3409 80.2443 89.2885 81.9755 87.0304 83.4056C86.2478 82.1934 85.1284 81.2357 83.8093 80.6498C83.4783 80.5555 83.1241 80.5883 82.8161 80.7417C82.508 80.8951 82.2686 81.1581 82.1447 81.479C82.0209 81.7999 82.0216 82.1555 82.1468 82.4759C82.2719 82.7963 82.5124 83.0583 82.821 83.2105C83.6141 83.5945 84.2824 84.1948 84.7488 84.9421C84.6029 85.337 84.4966 85.7455 84.4315 86.1614C64.2144 113.5 37.4209 103.794 36.2008 103.33C35.0609 102.953 33.8194 103.028 32.7339 103.541C31.6483 104.054 30.8019 104.965 30.3704 106.085C29.9388 107.205 29.9551 108.448 30.416 109.556C30.8768 110.664 31.7468 111.552 32.8455 112.037C38.0691 113.831 43.5618 114.718 49.0851 114.658C51.0747 114.661 53.0628 114.547 55.0392 114.317C65.1295 113.098 80.0514 107.342 91.984 91.9779C92.2711 91.8115 92.5482 91.6282 92.8137 91.4291C93.0711 91.2636 93.3195 91.0845 93.5579 90.8926C94.4835 90.0959 95.3406 89.223 96.1202 88.2832C96.3424 88.002 96.4475 87.6459 96.4134 87.2892C96.3793 86.9325 96.2087 86.6027 95.9371 86.3687Z" fill="#FFA87C"/>
<path d="M58.7237 103.452L57.589 103.696C54.782 104.298 51.9191 104.6 49.0482 104.598C44.7888 104.651 40.5516 103.979 36.5177 102.611C35.1585 102.09 33.6479 102.128 32.317 102.718C30.9861 103.308 29.9432 104.4 29.4167 105.757C29.1247 106.421 28.982 107.14 28.9989 107.865C29.0158 108.59 29.1917 109.302 29.5143 109.952C32.1986 114.707 39.568 116.634 49.036 116.634C51.0747 116.634 53.1117 116.516 55.1366 116.28C56.4112 116.137 57.6777 115.93 58.9311 115.658L59.7242 115.451C59.0145 113.178 58.5523 110.836 58.3454 108.464C58.37 106.787 58.4963 105.114 58.7237 103.452Z" fill="#E1F3F6"/>
<path d="M29.2216 94.8434C32.1133 93.0022 33.1016 89.5757 32.7844 86.137C35.3222 87.8442 37.3231 86.8077 38.8849 83.8812C43.6799 90.6 50.9761 80.6133 41.0201 76.9917C33.0528 74.1018 25.2441 81.979 27.2939 89.8927L29.2216 94.8434Z" fill="#00396A"/>
</g>
<defs>
<clipPath id="clip0_69_2664">
<rect width="426" height="226" fill="white"/>
</clipPath>
</defs>
</svg>
