<svg width="26" height="24" viewBox="0 0 26 24" fill="none" xmlns="http://www.w3.org/2000/svg">
<path fill-rule="evenodd" clip-rule="evenodd" d="M13 0C5.8175 0 0 5.50583 0 12.3035C0 17.7478 3.72125 22.3463 8.88875 23.9765C9.53875 24.0842 9.7825 23.715 9.7825 23.3921C9.7825 23.0999 9.76625 22.131 9.76625 21.1005C6.5 21.6696 5.655 20.347 5.395 19.6549C5.24875 19.3012 4.615 18.2092 4.0625 17.917C3.6075 17.6863 2.9575 17.1173 4.04625 17.1019C5.07 17.0865 5.80125 17.9939 6.045 18.363C7.215 20.2239 9.08375 19.701 9.83125 19.3781C9.945 18.5783 10.2863 18.04 10.66 17.7325C7.7675 17.4249 4.745 16.3637 4.745 11.6576C4.745 10.3196 5.24875 9.21227 6.0775 8.35102C5.9475 8.04343 5.4925 6.78232 6.2075 5.09058C6.2075 5.09058 7.29625 4.76762 9.7825 6.3517C10.8225 6.07487 11.9275 5.93645 13.0325 5.93645C14.1375 5.93645 15.2425 6.07487 16.2825 6.3517C18.7688 4.75224 19.8575 5.09058 19.8575 5.09058C20.5725 6.78232 20.1175 8.04343 19.9875 8.35102C20.8163 9.21227 21.32 10.3042 21.32 11.6576C21.32 16.3791 18.2812 17.4249 15.3888 17.7325C15.86 18.1169 16.2663 18.8552 16.2663 20.0086C16.2663 21.6542 16.25 22.9768 16.25 23.3921C16.25 23.715 16.4938 24.0995 17.1438 23.9765C19.7244 23.1519 21.9669 21.5821 23.5556 19.4881C25.1443 17.3942 25.9992 14.8814 26 12.3035C26 5.50583 20.1825 0 13 0Z" fill="black"/>
</svg>
