<svg width="44" height="40" viewBox="0 0 44 40" fill="none" xmlns="http://www.w3.org/2000/svg">
<ellipse cx="35.6013" cy="17.6809" rx="5.67232" ry="5.89365" fill="#5F96E9"/>
<ellipse cx="8.37417" cy="17.6809" rx="5.67232" ry="5.89365" fill="#98BAF4"/>
<ellipse cx="21.9877" cy="5.89365" rx="5.67232" ry="5.89365" fill="#5F96E9"/>
<path d="M2.70184 33.0045C7.21132 33.1943 15.6385 33.2799 19.1516 30.0576C22.3746 27.1014 25.2085 20.0089 25.3911 15.3235L19.1516 15.3235C19.0424 18.1245 16.5971 23.4424 14.6137 25.3427C12.6303 27.2431 5.39757 26.6349 2.7018 26.5214L2.70184 33.0045Z" fill="#98BAF4"/>
<path d="M41.2737 33.0045C36.7642 33.1943 28.5178 32.0785 25.1999 28.8996C21.8821 25.7207 19.9015 20.009 19.7189 15.3235L25.9584 15.3235C26.0676 18.1245 27.3784 22.2636 29.3618 24.164C31.3452 26.0643 38.5779 26.576 41.2737 26.4625L41.2737 33.0045Z" fill="#5F96E9"/>
</svg>
