<svg width="100" height="37" viewBox="0 0 100 37" fill="none" xmlns="http://www.w3.org/2000/svg">
<g clip-path="url(#clip0_15_733)">
<path d="M56.6256 14.0239L56.6256 14.0239C56.3005 13.61 56.0961 13.0901 55.9692 12.4767L52.1848 12.7204C52.3821 13.9961 52.9383 15.0535 53.808 15.92C54.7287 16.8373 56.4537 17.3602 59.1715 17.3602C60.6808 17.3602 61.9104 17.1324 62.8606 16.7172L62.8655 16.715C63.7533 16.3383 64.5095 15.7161 65.0525 14.9128L65.0539 14.9107C65.5723 14.1521 65.835 13.2425 65.835 12.3273V12.3166L65.8351 12.3166C65.8512 11.5622 65.658 10.8266 65.2736 10.1883L65.2716 10.185C64.9171 9.58608 64.3136 9.04888 63.4134 8.59196C62.5164 8.13673 61.0156 7.67888 58.8341 7.21178C58.3797 7.11931 57.9941 7.01942 57.6843 6.90989C57.3956 6.80782 57.1274 6.68221 56.9351 6.51323C56.6239 6.27222 56.3966 5.89149 56.3923 5.45555C56.3693 4.91066 56.6446 4.44625 57.0132 4.1518C57.4249 3.81933 57.988 3.68117 58.6288 3.68117C59.4116 3.68117 60.0794 3.86238 60.6108 4.29974C61.0485 4.65994 61.3225 5.15529 61.4845 5.74821L65.2145 5.53382C64.9656 4.24176 64.4007 3.33181 63.5707 2.753L63.5662 2.74983C62.6017 2.06114 61.1488 1.68945 59.1353 1.68945C57.4863 1.68945 56.2245 1.90281 55.354 2.27918L55.3449 2.28309L55.3358 2.28664C54.5511 2.58977 53.8868 3.13481 53.3958 3.83519C52.9843 4.43517 52.7612 5.16453 52.7612 5.8933V5.90079L52.761 5.90828C52.7295 6.95849 53.1849 7.94887 53.9938 8.62833L54.0002 8.63369L54.0064 8.63927C54.8301 9.37947 56.2985 10.0056 58.4645 10.4872C58.465 10.4873 58.4655 10.4874 58.466 10.4875L58.3575 10.9756C59.6961 11.264 60.5463 11.5884 60.9081 11.9128L56.6256 14.0239ZM56.6256 14.0239L56.63 14.0294C57.2624 14.8115 58.1378 15.1882 59.2258 15.1882C59.9889 15.1882 60.6841 15.0158 61.1897 14.5702C61.6663 14.205 61.9508 13.6312 61.9508 13.0302C61.9508 12.4504 61.687 11.8955 61.2296 11.5296L56.6256 14.0239ZM11.7144 10.9706C12.1012 11.0785 12.4988 11.2653 12.8573 11.4896C13.1145 11.7044 13.3347 11.954 13.5505 12.2352L13.5612 12.2492L13.5729 12.2623C13.8156 12.5364 14.0292 12.846 14.2119 13.1763L16.2536 17.1079H11.6947L9.15917 12.4141L9.1583 12.4125C8.81701 11.7861 8.48197 11.2764 8.10973 11.0044L8.1098 11.0043L8.10077 10.998C7.64939 10.6833 7.11394 10.5297 6.58466 10.5297H6.15051H5.65051V11.0297V17.0718H1.63965V1.97781H9.47902C11.0025 1.97781 12.1311 2.10443 12.867 2.34882L12.867 2.34887L12.8735 2.35093C13.5629 2.56946 14.1745 3.02295 14.5808 3.63021L14.5808 3.63021L14.5823 3.63243C15.0463 4.31778 15.2724 5.11664 15.2562 5.95574L15.256 5.96912L15.2564 5.98249C15.3045 7.38838 14.5827 8.72493 13.357 9.42318C12.8629 9.70203 12.3199 9.89851 11.7622 9.99657L11.7144 10.9706ZM5.65051 8.00192V8.50192H6.15051H8.267H8.2869L8.30673 8.50034C8.78078 8.46256 9.23629 8.38741 9.69043 8.27529C10.1385 8.19529 10.5328 7.94503 10.8026 7.57966C11.441 6.72948 11.3476 5.52421 10.5624 4.78932L10.5515 4.77917L10.5401 4.76969C10.2933 4.56478 9.96875 4.43691 9.61535 4.35782C9.25676 4.27757 8.83355 4.23987 8.35745 4.23987H6.15051H5.65051V4.73987V8.00192ZM2.36024 27.7971L2.35404 27.7915L2.34765 27.7861C1.53877 27.1067 1.08336 26.1163 1.11483 25.0661L1.11505 25.0586V25.0511C1.11505 24.3224 1.33808 23.5931 1.74956 22.9931C2.24056 22.2927 2.90489 21.7476 3.68959 21.4445L3.69878 21.4409L3.70783 21.437C4.57835 21.0606 5.84019 20.8473 7.48915 20.8473C9.50264 20.8473 10.9555 21.219 11.92 21.9076C12.753 22.5024 13.3049 23.4018 13.5508 24.6916L9.82026 24.906C9.65875 24.315 9.38595 23.8209 8.95072 23.461C8.43117 23.0162 7.73782 22.8382 6.95811 22.857C6.32758 22.8579 5.76212 22.9932 5.34779 23.3463C4.94556 23.6539 4.70561 24.1239 4.728 24.6495C4.73241 25.0854 4.95963 25.4661 5.27086 25.7071C5.46317 25.8761 5.73132 26.0017 6.02003 26.1038C6.32987 26.2133 6.71547 26.3132 7.16991 26.4057C9.35135 26.8728 10.8522 27.3306 11.7491 27.7858C12.6494 28.2427 13.2528 28.7799 13.6074 29.3789L13.6073 29.3789L13.6093 29.3821C13.9942 30.0212 14.1889 30.7603 14.1889 31.5031C14.1889 32.4101 13.9126 33.305 13.405 34.0726C12.8621 34.8749 12.1065 35.4964 11.2193 35.8729L11.2193 35.8728L11.2144 35.875C10.2642 36.2902 9.03462 36.518 7.52533 36.518C4.80891 36.518 3.08432 35.9956 2.16327 35.0792C1.29691 34.2008 0.765208 33.1423 0.560914 31.8599L4.34111 31.6165C4.46789 32.2293 4.67203 32.7488 4.99662 33.1625C5.61082 33.9492 6.50726 34.3461 7.59768 34.3461C8.36373 34.3461 9.06123 34.1724 9.56724 33.723C10.029 33.3497 10.3227 32.8006 10.3227 32.188C10.3227 31.6083 10.0589 31.0533 9.60156 30.6875C9.35031 30.4668 8.98165 30.2817 8.54185 30.1194C8.08517 29.9509 7.50934 29.792 6.81765 29.6449C4.65208 29.1633 3.18389 28.5372 2.36024 27.7971Z" fill="#30323D" stroke="#30323D"/>
<path d="M17.0133 35.7883L17.0105 35.7871C15.9994 35.3322 15.1088 34.509 14.3329 33.2893C13.5846 32.1131 13.199 30.5748 13.199 28.6376C13.199 26.0566 13.8801 24.1477 15.1865 22.8462C16.4979 21.5396 18.3648 20.8473 20.8755 20.8473C22.8547 20.8473 24.3348 21.2487 25.3999 21.9819C26.334 22.652 27.0808 23.6448 27.6238 24.9929L24.2073 25.7462C24.1008 25.4772 23.9675 25.2134 23.8056 24.9713L23.8011 24.9646L23.7964 24.958C23.4759 24.5111 23.0701 24.1725 22.5895 23.9226C22.0872 23.6616 21.534 23.5599 21.0022 23.5599C19.7061 23.5599 18.6757 24.0856 17.9806 25.1532C17.446 25.9444 17.2098 27.1284 17.2098 28.6016C17.2098 30.3983 17.4753 31.7818 18.1361 32.5937C18.7905 33.3978 19.7046 33.7694 20.8213 33.7694C21.8739 33.7694 22.7477 33.4701 23.3573 32.8178L23.363 32.8117L23.3685 32.8055C23.8329 32.2742 24.1813 31.5907 24.4175 30.7632L27.8369 31.7908C27.592 32.6523 27.1809 33.4747 26.6428 34.2146C26.0816 34.9532 25.3372 35.531 24.4892 35.9124C23.6307 36.2903 22.511 36.5 21.1107 36.5C19.3973 36.5 18.0286 36.2526 17.0133 35.7883ZM38.7728 30.2055V36.2297H34.78V21.1176H38.7728V26.2586V26.7586H39.2728H44.7359H45.2359V26.2586V21.1176H49.2648V36.2297H45.2359V30.2055V29.7055H44.7359H39.2728H38.7728V30.2055Z" fill="#30323D" stroke="#30323D"/>
<path d="M64.445 32.947L64.4437 32.9495C63.8752 34.049 62.9881 34.9506 61.897 35.5527C60.776 36.1694 59.3623 36.4999 57.6338 36.4999C55.8572 36.4999 54.437 36.2193 53.3316 35.686C52.1902 35.1167 51.2522 34.231 50.6331 33.1474L50.6331 33.1474L50.63 33.1421C49.9438 31.9749 49.5774 30.4998 49.5774 28.6736C49.5774 26.1383 50.2895 24.2249 51.6372 22.8822C52.9856 21.5388 54.9073 20.8292 57.4348 20.8292C60.0402 20.8292 61.961 21.5239 63.307 22.8483C64.6523 24.172 65.3466 26.0475 65.3466 28.5474C65.3466 30.3854 65.0299 31.8314 64.445 32.947ZM54.5895 32.5249L54.5895 32.5249L54.5935 32.5297C55.298 33.3592 56.2775 33.7693 57.4529 33.7693C58.6377 33.7693 59.621 33.383 60.3304 32.5477C61.0504 31.7 61.3357 30.2966 61.3357 28.4754C61.3357 26.916 61.0229 25.6485 60.2873 24.8275C59.5651 24.0036 58.5909 23.6161 57.4264 23.6139C56.35 23.575 55.3244 24.0389 54.6165 24.848C53.8801 25.6894 53.5702 27.0135 53.5702 28.6916C53.5702 30.356 53.8819 31.6703 54.5895 32.5249ZM86.3336 32.947L86.3322 32.9495C85.7638 34.049 84.8766 34.9506 83.7856 35.5527C82.6645 36.1694 81.2509 36.4999 79.5224 36.4999C77.7457 36.4999 76.3256 36.2193 75.2202 35.686C74.0788 35.1167 73.1408 34.231 72.5217 33.1474L72.5217 33.1474L72.5186 33.1421C71.8324 31.9749 71.466 30.4998 71.466 28.6736C71.466 26.1383 72.178 24.2249 73.5258 22.8822C74.8741 21.5388 76.7959 20.8292 79.3234 20.8292C81.9308 20.8292 83.8672 21.5249 85.1934 22.8461C86.5244 24.1722 87.2351 26.0505 87.2351 28.5474C87.2351 30.3854 86.9185 31.8314 86.3336 32.947ZM76.4781 32.5249L76.4781 32.5249L76.4821 32.5297C77.1866 33.3592 78.1661 33.7693 79.3415 33.7693C80.5262 33.7693 81.5095 33.383 82.219 32.5477C82.939 31.7 83.2243 30.2966 83.2243 28.4754C83.2243 26.916 82.9115 25.6485 82.1759 24.8276C81.4537 24.0036 80.4795 23.6161 79.3149 23.6139C78.2439 23.5752 77.197 24.0348 76.5025 24.8509C75.768 25.6924 75.4587 27.0154 75.4587 28.6916C75.4587 30.356 75.7704 31.6703 76.4781 32.5249Z" fill="#30323D" stroke="#30323D"/>
<path d="M92.2034 33.2648H99.5V36.2297H87.6925V21.1177H91.7034V32.7648V33.2648H92.2034Z" fill="#30323D" stroke="#30323D"/>
<path d="M81.7074 19.6878C86.7341 15.9139 88.2841 9.51656 85.1696 5.39892C82.055 1.28128 75.4552 1.00261 70.4286 4.77651C65.4019 8.5504 63.8519 14.9477 66.9665 19.0654C70.081 23.183 76.6808 23.4617 81.7074 19.6878Z" fill="white"/>
<path d="M81.7074 19.6878C86.7341 15.9139 88.2841 9.51656 85.1696 5.39892C82.055 1.28128 75.4552 1.00261 70.4286 4.77651C65.4019 8.5504 63.8519 14.9477 66.9665 19.0654C70.081 23.183 76.6808 23.4617 81.7074 19.6878Z" fill="white"/>
<path d="M81.7074 19.6878C86.7341 15.9139 88.2841 9.51656 85.1696 5.39892C82.055 1.28128 75.4552 1.00261 70.4286 4.77651C65.4019 8.5504 63.8519 14.9477 66.9665 19.0654C70.081 23.183 76.6808 23.4617 81.7074 19.6878Z" fill="white" stroke="#30323D" stroke-width="4" stroke-miterlimit="10"/>
<path d="M81.7074 19.6878C86.7341 15.9139 88.2841 9.51656 85.1696 5.39892C82.055 1.28128 75.4552 1.00261 70.4286 4.77651C65.4019 8.5504 63.8519 14.9477 66.9665 19.0654C70.081 23.183 76.6808 23.4617 81.7074 19.6878Z" stroke="#30323D" stroke-width="4" stroke-miterlimit="10"/>
<path d="M81.7074 19.6878C86.7341 15.9139 88.2841 9.51656 85.1696 5.39892C82.055 1.28128 75.4552 1.00261 70.4286 4.77651C65.4019 8.5504 63.8519 14.9477 66.9665 19.0654C70.081 23.183 76.6808 23.4617 81.7074 19.6878Z" fill="white" stroke="#30323D" stroke-width="4" stroke-miterlimit="10"/>
<path d="M81.7074 19.6878C86.7341 15.9139 88.2841 9.51656 85.1696 5.39892C82.055 1.28128 75.4552 1.00261 70.4286 4.77651C65.4019 8.5504 63.8519 14.9477 66.9665 19.0654C70.081 23.183 76.6808 23.4617 81.7074 19.6878Z" stroke="#30323D" stroke-width="4" stroke-miterlimit="10"/>
<path d="M71.4996 16.9233L72.3089 16.1732C72.3755 16.2391 72.4453 16.3012 72.5176 16.3588L72.5282 16.3673L72.5393 16.3752C72.7384 16.5169 72.9826 16.612 73.2634 16.612C73.5093 16.612 73.7317 16.517 73.8922 16.3973C74.2029 16.1976 74.4295 15.819 74.3948 15.4035L74.3928 15.3806L74.3888 15.358C74.3236 14.9897 74.1709 14.6038 73.9123 14.2919L71.6846 11.1688L72.6711 10.4807L74.6095 13.2283L74.614 13.2346L74.6186 13.2408C74.9636 13.6991 75.2278 14.1898 75.4279 14.7327C75.5167 15.0643 75.4899 15.4271 75.3541 15.7537C75.158 16.2027 74.844 16.5746 74.4228 16.8444L74.4149 16.8494L74.4073 16.8548C73.839 17.2494 73.4034 17.4382 73.0729 17.4931L73.0729 17.4931L73.0695 17.4937C72.7693 17.5457 72.4398 17.497 72.1211 17.3544C71.8909 17.2388 71.6818 17.0948 71.4996 16.9233ZM75.4466 8.68404C75.7566 8.24579 76.1265 7.87938 76.5721 7.59396L76.579 7.58952L76.5858 7.58486C77.3035 7.09112 77.8734 6.89795 78.3104 6.89795C78.5883 6.89795 78.8731 6.9844 79.1672 7.19724L78.3256 7.85865C77.8223 7.54406 77.1486 7.54034 76.6462 7.93204L76.6223 7.95071L76.6008 7.97214L76.5852 7.98765C76.3291 8.15833 76.1515 8.40025 76.0506 8.67547C75.9264 9.00851 76.021 9.34337 76.1855 9.57287L76.1935 9.58396L76.202 9.59459C76.3325 9.75714 76.561 9.93233 76.8691 9.9432C77.0316 9.95709 77.1962 9.92353 77.3348 9.88408C77.4913 9.83952 77.6671 9.77166 77.8578 9.68635C78.7478 9.31425 79.3886 9.11748 79.7972 9.05487L79.7972 9.05505L79.8105 9.05263C80.1205 8.99649 80.4364 9.02599 80.719 9.14663L80.719 9.14664L80.7219 9.14787C80.9671 9.25072 81.1801 9.43416 81.3281 9.66201L81.3331 9.66966L81.3383 9.67712C81.5349 9.95691 81.6495 10.296 81.6639 10.6528C81.6778 11.0143 81.5814 11.363 81.3831 11.6753C81.0947 12.105 80.727 12.4709 80.295 12.7579L80.2949 12.7578L80.2881 12.7625C79.3187 13.4298 78.6448 13.6212 78.1933 13.5462L78.1933 13.5462L78.1872 13.5452C77.7919 13.4846 77.4465 13.328 77.1581 13.096L78.0309 12.408C78.1932 12.5282 78.3717 12.6237 78.5589 12.6903L78.571 12.6946L78.5833 12.6982C79.0977 12.852 79.637 12.7489 80.0656 12.4285C80.3393 12.2436 80.6086 11.9641 80.7237 11.5741C80.913 10.989 80.5888 10.3524 80.0056 10.1587L79.8509 10.6246L80.0056 10.1587C80.003 10.1578 79.9999 10.1568 79.9964 10.1556C79.9521 10.1405 79.8386 10.102 79.7092 10.0976C79.5244 10.0852 79.3191 10.1178 79.1104 10.1716C78.8885 10.2288 78.6304 10.3187 78.3362 10.4416C77.4461 10.8065 76.8127 10.9167 76.389 10.8747C75.9988 10.8342 75.655 10.6354 75.4568 10.3269L75.4507 10.3174L75.4441 10.3081C75.2914 10.0925 75.2083 9.83135 75.1925 9.55728C75.1947 9.2329 75.2807 8.92681 75.4466 8.68404Z" fill="#30323D" stroke="#30323D"/>
</g>
<defs>
<clipPath id="clip0_15_733">
<rect width="100" height="37" fill="white"/>
</clipPath>
</defs>
</svg>
