<svg width="12" height="16" viewBox="0 0 12 16" fill="none" xmlns="http://www.w3.org/2000/svg">
<g clip-path="url(#clip0_209_698)">
<path d="M6 8H11.25M11.25 8L9 10.25M11.25 8L9 5.75M11.25 3.5V2.75C11.25 2.35218 11.092 1.97064 10.8107 1.68934C10.5294 1.40804 10.1478 1.25 9.75 1.25H2.25C1.85218 1.25 1.47064 1.40804 1.18934 1.68934C0.908035 1.97064 0.75 2.35218 0.75 2.75V13.25C0.75 13.6478 0.908035 14.0294 1.18934 14.3107C1.47064 14.592 1.85218 14.75 2.25 14.75H9.75C10.1478 14.75 10.5294 14.592 10.8107 14.3107C11.092 14.0294 11.25 13.6478 11.25 13.25V12.5" stroke="#DD5A5A" stroke-linecap="round" stroke-linejoin="round"/>
</g>
<defs>
<clipPath id="clip0_209_698">
<rect width="12" height="16" fill="white"/>
</clipPath>
</defs>
</svg>
