<svg width="14" height="17" viewBox="0 0 14 17" fill="none" xmlns="http://www.w3.org/2000/svg">
<path fill-rule="evenodd" clip-rule="evenodd" d="M10 2.75H13.75V4H12.5V15.25L11.25 16.5H2.5L1.25 15.25V4H0V2.75H3.75V1.5C3.75 1.16848 3.8817 0.850537 4.11612 0.616116C4.35054 0.381696 4.66848 0.25 5 0.25H8.75C9.08152 0.25 9.39946 0.381696 9.63388 0.616116C9.8683 0.850537 10 1.16848 10 1.5V2.75ZM8.75 1.5H5V2.75H8.75V1.5ZM2.5 15.25H11.25V4H2.5V15.25ZM5 5.25H3.75V14H5V5.25ZM6.25 5.25H7.5V14H6.25V5.25ZM8.75 5.25H10V14H8.75V5.25Z" fill="#DD5A5A"/>
</svg>
